<svg xmlns="http://www.w3.org/2000/svg" viewBox="0 0 16 16" fill-rule="evenodd" clip-rule="evenodd" stroke-linejoin="round" stroke-miterlimit="1.414"><path d="M7.778 15.89c-.696-.082-1.103-.17-1.602-.345-.337-.12-.855-.368-1.066-.513-.138-.095-.15-.097-.256-.052a.977.977 0 0 1-.686.012c-.825-.277-1.675-.93-2.136-1.642-.34-.524-.483-.894-.543-1.413-.028-.23-.056-.346-.098-.392-.255-.28-.304-.862-.078-.92.094-.022.17.034.226.168l.04.096.05-.114c.09-.212.306-.36.594-.404.17-.026.245.018.188.11-.055.09-.052.1.033.1.073 0 .073-.005.076-.482.004-.58.047-.867.194-1.3.167-.49.324-.775.66-1.194.184-.23.278-.29.448-.29.098 0 .107-.01.093-.083-.01-.045.002-.104.024-.13.033-.04.03-.05-.014-.05-.092 0-.127-.13-.088-.338.033-.18.238-.656.34-.787.045-.06.038-.076-.094-.224a.898.898 0 0 1-.172-.262c-.05-.18.05-.815.174-1.125.128-.317.444-.84.71-1.174.104-.13.186-.238.18-.24l-.22-.012c-.223-.012-.327-.04-.327-.085 0-.024.148-.128.44-.308.304-.188.563-.505.837-1.027a1.52 1.52 0 0 1 .216-.314l.107-.104-.27.004c-.25.003-.27 0-.28-.067-.013-.1.15-.207.353-.23.09-.01.164-.03.163-.04 0-.01-.077-.07-.17-.134-.325-.22-.337-.4-.03-.42a.51.51 0 0 1 .326.077c.15.08.333.3.333.398 0 .072.056.05.077-.03.023-.087.23-.236.283-.203.02.012.03.05.02.084-.02.082.008.08.242-.02.387-.162.97-.26 1.166-.198.114.037.092.142-.05.225l-.12.072.26.02c.144.01.302.035.352.055.23.095.377.273.43.524.03.127.165.2.378.2.21 0 .41.13.802.51.393.385.487.51.7.92.078.148.188.324.246.39l.105.12.05-.096c.2-.394.294-.948.28-1.664-.01-.454-.006-.49.05-.5.12-.025.358.277.458.58.146.448.203 1.08.143 1.602l-.024.212.097-.18c.196-.366.283-.715.39-1.568.068-.55.104-.686.182-.686.072 0 .2.29.295.676.24.966-.035 2.064-.754 3.016l-.136.18.06.244c.122.504.188.878.227 1.29.04.405.046.432.153.572.27.356.48.94.517 1.437.023.298-.004.375-.103.293-.04-.033-.046-.02-.046.094 0 .178.11.464.248.644.06.08.11.16.11.178 0 .05-.106.04-.19-.02-.04-.028-.08-.047-.086-.04-.006.006.025.136.07.29.21.72.185 2.084-.06 3.028-.077.303-.078.505-.002.57.11.098.21.13.41.132.265.004.35-.025.35-.118 0-.104-.132-.214-.332-.28-.2-.065-.26-.132-.19-.214.035-.043.085-.053.23-.042l.182.013-.074-.213c-.077-.22-.065-.297.048-.296.186.003.565.308.693.56.037.07.076.202.086.29.017.138.027.156.075.13.074-.04.132.02.132.13 0 .164-.243.327-.487.327a.357.357 0 0 0-.21.07c-.146.113-.442.197-.756.214-.248.014-.314.006-.414-.046l-.118-.063-.067.158c-.035.087-.06.158-.05.158a.46.46 0 0 0 .095-.052c.103-.068.164-.023.212.157.048.177-.006.324-.17.465l-.133.114.094.02c.3.067.567.196.567.276 0 .015-.068.006-.152-.02-.22-.065-.496-.054-.958.04-.225.047-.54.11-.703.142a9.028 9.028 0 0 0-.637.158c-.66.192-1.333.27-2.25.265-.334-.003-.77-.023-.967-.046zm2.22-.13c.4-.052.468-.066 1.275-.26.25-.06.545-.128.653-.15.504-.1.716-.155.728-.19.007-.02-.01-.038-.04-.038-.096 0-.05-.063.14-.193.194-.132.234-.184.234-.302 0-.06-.006-.06-.106.016a.615.615 0 0 1-.196.1c-.277.058-.26.06-.237-.016.01-.038.07-.152.132-.254.11-.186.41-.938.454-1.143.022-.1.02-.106-.04-.073a.57.57 0 0 0-.15.174c-.1.174-.245.314-.276.27a18.01 18.01 0 0 1-.15-.228c-.207-.32-.336-.46-.673-.734-.177-.143-.35-.3-.39-.346a.453.453 0 0 1-.07-.408c.033-.11.033-.11.018.035-.013.13-.01.136.018.048a.36.36 0 0 0 .018-.157c-.007-.032.044-.143.115-.25.07-.107.13-.212.13-.236.003-.034.006-.034.02 0 .013.032.03.028.062-.016a.23.23 0 0 0 .046-.09c0-.017-.02-.002-.047.033-.027.036-.05.047-.05.025s.032-.07.07-.106c.04-.038.062-.068.05-.068-.014 0-.008-.033.012-.073.032-.067.03-.066-.03.007a2.91 2.91 0 0 0-.2.347c-.232.456-.72.875-1.192 1.023-.108.034-.297.1-.42.144-.265.1-.57.148-1.034.168-.19.007-.412.024-.497.036-.147.02-.154.02-.175-.066-.03-.113.052-.225.256-.36a.672.672 0 0 0 .153-.12c0-.01-.072-.03-.16-.04-.177-.024-.556-.205-.725-.345-.128-.107-.105-.18.047-.15.07.014.088.01.055-.01-.077-.047-1.013-.324-1.17-.346-.124-.018-.688.03-.72.062-.005.005.064.083.156.17.182.177.21.285.1.385-.113.103-.414.028-.678-.17-.156-.116-.13-.16.033-.05.165.112.388.204.495.204.188 0 .175-.177-.027-.354-.215-.19-.276-.177-.746.134-.25.168-.3.22-.202.22.073 0 .37.287.442.43.245.48-.21.6-.778.21a1.665 1.665 0 0 0-.185-.118c-.016 0-.183.28-.183.306 0 .01.08.07.178.132.273.175.445.346.53.525.086.186.092.24.038.358-.076.166-.32.172-.695.016-.1-.042-.188-.07-.197-.06-.03.03.053.272.15.443.16.28.77.726 1.39 1.012.61.28 1.423.466 2.395.545.32.026 1.475-.01 1.846-.06zm-5.865-1.142c.06-.044.13-.112.157-.15.045-.064.04-.083-.037-.227a1.852 1.852 0 0 1-.138-.412 1.13 1.13 0 0 1-.013-.52c.05-.33.222-.697.483-1.034.206-.267.326-.38.65-.613.13-.09.137-.103.105-.194a.62.62 0 0 0-.11-.18c-.068-.072-.107-.084-.27-.084-.65 0-1.317.505-1.663 1.26-.32.7-.194 1.49.325 2.03.226.236.327.26.51.126zm-.732-.21a2.188 2.188 0 0 1-.35-.798c-.04-.21-.048-.226-.177-.302-.335-.196-.548-.655-.377-.81.13-.118.27-.102.6.07.023.01.203-.355.182-.37-.197-.128-.323-.24-.367-.32-.07-.134-.054-.314.033-.362.036-.02.07-.04.078-.043.007-.004-.026-.053-.073-.11-.047-.055-.086-.12-.086-.147 0-.06-.03-.06-.157.005-.14.07-.22.05-.21-.052l.03-.29.02-.208-.136.018c-.154.02-.196-.022-.135-.137.034-.06.028-.066-.08-.066-.13 0-.332.113-.433.24a.803.803 0 0 0-.107.232c-.06.218-.084.203-.225-.154-.076-.193-.185-.04-.158.223.025.24.115.424.312.64.184.2.218.267.082.16-.048-.038-.093-.062-.1-.055-.007.007.01.12.037.254.16.77.5 1.363 1.118 1.955.254.243.702.583.772.586.014 0-.027-.07-.09-.157zm10.29-.49a.794.794 0 0 0 .21-.15l.082-.086-.228.005a1.643 1.643 0 0 1-.317-.018c-.088-.024-.09-.022-.09.12 0 .08.01.155.022.167.04.04.188.02.32-.04zm-8.68-.046c.054-.043.05-.235-.006-.344-.087-.164-.552-.562-.657-.562-.057 0-.144.294-.154.52l-.01.213.165.08c.3.147.548.182.66.092zm9.37-.632c.104-.25-.026-.503-.33-.647-.167-.08-.188-.033-.04.09.196.166.25.274.252.487 0 .217.045.243.118.07zm-11.363-.152c.006-.094.025-.222.042-.285.045-.173.04-.185-.1-.242-.192-.075-.38-.068-.426.016-.08.15.066.45.3.62.075.053.144.09.153.08a.67.67 0 0 0 .03-.188zm10.967.107a.076.076 0 0 0-.06-.032c-.022 0-.018.013.01.032.064.04.075.04.05 0zm-8.528-.543c-.003-.164-.174-.415-.37-.545l-.128-.085-.153.17c-.235.26-.235.262-.057.39.192.14.41.22.58.21l.13-.006-.002-.135zm3.483.083c.656-.052 1.192-.227 1.646-.537.08-.054.134-.074.14-.052.018.05.24-.13.372-.3l.105-.138-.11.098c-.166.15-.016-.073.374-.555a4.45 4.45 0 0 0 .32-.456c.217-.372.23-.386.205-.212-.012.08-.03.176-.037.212-.03.126.246-.216.363-.45.102-.204.113-.25.097-.403a2.09 2.09 0 0 0-.05-.28c-.064-.224-.037-.444.084-.69.062-.13.12-.3.13-.38.01-.082.024-.2.03-.262.012-.09.004-.08-.033.05-.115.387-.382 1.035-.512 1.24-.373.585-.442.64-1.086.883-.39.148-.757.18-1.318.117-.655-.074-1.646-.278-1.92-.397a.94.94 0 0 1-.47-.458c-.13-.307-.08-.993.124-1.624.033-.1.03-.11-.053-.142-.115-.045-.367-.05-.44-.007-.054.03-.046.042.073.12.263.174.29.44.053.506-.14.04-.33 0-.552-.11a2.27 2.27 0 0 0-.17-.08.88.88 0 0 0-.093.128l-.085.13.105.064c.126.078.248.204.363.376.112.168.118.385.013.46-.12.083-.38.065-.59-.042-.2-.1-.22-.093-.22.104 0 .088.028.125.162.225.173.13.308.29.345.412.033.11-.005.226-.082.25-.036.012-.058.034-.048.05.027.044 1.035.703 1.346.88.158.09.464.238.68.33.398.172.61.29.44.245-.137-.036-.666-.114-.68-.1-.007.006.08.06.195.118.175.09.25.107.485.118.325.014.434.033.41.07-.01.016-.074.036-.145.046-.198.025-.59.306-.59.42 0 .072.02.073.62.025zm3.198-2.97c0-.114.008-.2.017-.19.025.024.028.352.004.376-.012.012-.022-.07-.022-.185zm.184.048a.274.274 0 0 1-.018-.092c0-.02.016-.002.033.04.017.044.026.086.02.093-.01.007-.024-.01-.035-.04zm-8.97 2.306c0-.018.08-.126.177-.242.132-.157.168-.22.14-.247-.06-.057-.123-.042-.123.03 0 .09-.06.082-.275-.032-.156-.082-.196-.09-.265-.06-.044.02-.08.057-.08.08 0 .107.1.27.232.38.146.123.19.145.19.09zm.114-.55c-.057-.14-.08-.257-.063-.312.018-.055.025-.056.075-.01.087.08.285.15.415.15a.69.69 0 0 0 .3-.103c.205-.117.575-.224.78-.224.2 0 .2-.044-.003-.108-.378-.12-.958-.606-1.224-1.027l-.11-.174-.172.023a.732.732 0 0 1-.29-.017c-.277-.092-.285-.49-.015-.752.105-.104.125-.14.107-.21-.023-.093-.047-.104-.104-.046-.022.02-.113.04-.203.04-.19.004-.183-.006-.285.477-.06.285-.08 1.222-.033 1.524a.68.68 0 0 1-.01.242c-.017.06-.024.114-.015.123.008.008.074-.047.146-.122.124-.13.146-.13.133.002-.013.13.225.415.44.528.127.067.158.066.13-.003zm.27-.092a2.105 2.105 0 0 1-.2-.064c-.113-.047-.013.078.11.142.102.052.12.053.172.01.055-.046.05-.052-.082-.088zm2.446-.15c.24-.032.56-.024.828.023.088.016-.02-.067-.474-.37-.323-.214-.618-.424-.656-.467a.666.666 0 0 1-.106-.214c-.033-.117-.053-.138-.144-.152a.574.574 0 0 0-.113-.01.656.656 0 0 0 .023.133c.066.292-.033.632-.22.756l-.104.07.137.054c.076.03.204.096.285.15.09.058.174.09.218.08.04-.008.186-.03.326-.05zm5.667-.265c-.012-.066-.023-.084-.03-.047-.013.056.01.154.034.154.007 0 .004-.048-.005-.107zm-6.814-.368a1.77 1.77 0 0 0 .21-.59c0-.018-.077-.06-.172-.093-.207-.073-.285-.136-.285-.23 0-.038-.054-.282-.118-.542-.14-.572-.243-1.08-.243-1.208a.24.24 0 0 1 .066-.156c.067-.062.067-.062-.104-.216-.36-.324-.634-.376-.832-.16-.177.194-.246.425-.248.827-.002.444.086.79.308 1.217.28.534.62.91 1.068 1.176.196.116.243.113.348-.025zm5.803-.248c.322-.11.662-.312.816-.484.18-.2.397-.582.554-.974.07-.17.124-.313.124-.317 0-.004-.1.04-.22.1-.12.06-.28.116-.35.127-.106.016-.08-.002.136-.093.46-.195.487-.23.6-.84.032-.18.074-1.024.043-.89-.018.076-.01.077-.21-.024-.047-.024-.065-.022-.066.008-.002.034-.006.034-.02.002-.01-.023-.03-.04-.048-.04-.018 0-.023.017-.012.04.012.022-.008.004-.045-.04-.05-.064-.07-.072-.082-.034-.043.137-.05.133-.033-.022.01-.094.02-.39.02-.657.002-.468-.036-.726-.106-.726-.052 0-.465.163-.516.204-.04.034-.046.03-.027-.017.018-.048.008-.053-.068-.036a.703.703 0 0 0-.17.07c-.07.04-.064.03.026-.065.123-.132.347-.26.553-.322.15-.045.15-.044.05-.283-.038-.09-.055-.105-.093-.074-.025.022-.063.028-.085.015-.024-.015-.03-.01-.017.01.034.057-.933.6-.98.553-.007-.006.045-.038.116-.07.082-.036.136-.086.15-.134a.2.2 0 0 1 .084-.112c.036-.02.057-.05.047-.066-.01-.017.005-.022.032-.012.033.013.05.002.05-.032s.02-.044.056-.03c.036.014.046.008.03-.017-.015-.025-.005-.03.028-.02.028.012.05.004.05-.017 0-.02.014-.03.03-.02.015.01.047-.005.07-.033.085-.102.226-.148.424-.138.108.005.195.02.195.032s.03.016.066.01c.044-.01.06 0 .045.022-.014.024.002.03.048.018.04-.01.08-.003.092.016.014.023.005.025-.024.007-.037-.022-.038-.018-.005.023.023.027.03.063.017.08-.013.016-.003.012.022-.01.038-.033.034-.074-.03-.26-.138-.415-.108-.39-.274-.228-.156.15-.558.38-.668.38a.326.326 0 0 0-.158.077c-.23.192-.973.564-1.245.624-.06.012-.106.033-.106.045 0 .013.07.094.16.18.318.314.5.834.514 1.464.01.46.033.508.326.648.223.107.263.143.12.11a.873.873 0 0 1-.377-.203c-.086-.08-.09-.08-.09-.016 0 .09.2.26.447.375.165.077.265.1.52.114.222.013.298.027.26.05-.032.016-.177.024-.323.016-.33-.017-.58-.11-.79-.295-.093-.08-.162-.12-.17-.098-.04.124-.298.385-.447.455-.23.106-.805.112-1.078.01-.22-.082-.256-.065-.45.22-.122.178-.148.163-.07-.04.016-.04.01-.05-.016-.035-.022.013-.04.007-.04-.015 0-.072-.09.034-.177.208a.743.743 0 0 0-.084.348c-.002.148-.01.17-.038.12-.09-.154.037-.605.242-.857.122-.15.162-.266.12-.347-.058-.106-.013-.464.076-.625.07-.125.086-.136.205-.134.072.002.17.015.22.03.068.02.09.014.09-.022 0-.11-.318-.254-.555-.254a.363.363 0 0 1-.178-.043c-.055-.04-.055-.05-.006-.196.048-.14.048-.164.002-.253-.04-.078-.065-.093-.123-.075a.41.41 0 0 0-.112.055c-.057.045-.05.23.01.358.05.105.048.113-.082.377-.346.703-.516 1.254-.547 1.778-.016.277-.01.338.054.494.147.362.42.517 1.15.656.26.05.3.043.275-.04a.14.14 0 0 1 .015-.103c.024-.038.032-.027.032.05 0 .11.028.16.097.17.04.006.048-.036.04-.256a1.043 1.043 0 0 1 .047-.426c.087-.244.148-.266.074-.027-.062.2-.09.715-.038.72.013.002.223.03.465.065.552.076 1.018.063 1.314-.038zm-4.62.007c.085-.052.008-.235-.183-.434-.1-.105-.193-.19-.208-.19-.077 0 .037.544.127.613.06.047.2.053.264.01zM3.58 9.68c.007-.008-.025-.098-.072-.2a5.446 5.446 0 0 1-.142-.348l-.057-.16-.125.134c-.12.13-.147.216-.13.412.01.097.098.176.213.19.1.014.285-.004.313-.03zm2.99-.162c.11-.11.027-.327-.208-.547-.268-.25-.278-.25-.393-.014-.153.313-.16.393-.042.478.178.126.55.175.642.084zm6.615-.303a1.006 1.006 0 0 1-.065-.234c0-.035-.014-.064-.032-.064-.045 0-.042.216.004.304.044.084.133.19.147.176a.715.715 0 0 0-.054-.18zm-10.046-.52c.094-.058.096-.066.1-.353.005-.16.018-.326.03-.366.045-.14-.032-.07-.165.147-.158.26-.256.508-.23.58.026.066.147.062.265-.01zm10.08-.315a1.88 1.88 0 0 0-.177-.75c-.068-.145-.078-.153-.095-.082a3.83 3.83 0 0 0-.042.375c-.02.274-.015.312.06.474.065.145.094.176.166.18.085.005.086 0 .086-.197zm-6.91-.138c.14-.144.425-.33.566-.37.17-.048.37-.04.445.016.12.09.16.052.372-.366.166-.33.198-.417.167-.455-.062-.075-.094-.31-.053-.397.04-.09.18-.172.294-.172.086 0 .154.065.223.213.084.18.442.22.83.094.272-.09.343-.156.343-.324 0-.123-.01-.145-.066-.145-.05 0-.065.022-.065.096 0 .154-.14.243-.343.22-.18-.022-.65-.237-.927-.425-.14-.095-.206-.12-.33-.12-.472 0-.91-.41-1.062-.995-.053-.207-.043-.278.02-.127.142.35.27.583.386.71.235.255.65.376.9.265l.13-.058-.17-.027c-.24-.038-.386-.105-.45-.205-.082-.124-.1-.347-.037-.467.048-.094.058-.098.206-.08.138.014.15.01.106-.032a.425.425 0 0 0-.323-.125c-.16 0-.177-.05-.026-.074.168-.03.28.007.41.13l.12.114.294-.02c.938-.06 1.817-.38 2.406-.878.17-.144.32-.35.32-.443a.97.97 0 0 1 .053-.21c.036-.107.072-.156.122-.166.038-.008-.01-.01-.105-.004-.22.013-.49.146-.643.315-.133.147-.147.124-.03-.048a.905.905 0 0 1 .253-.22c.094-.053.156-.097.138-.096a.38.38 0 0 0-.114.047.37.37 0 0 1-.13.05c-.07 0 .047-.116.164-.164.103-.043.11-.076.074-.337-.013-.1-.033-.144-.057-.13-.02.012-.015-.002.01-.033.024-.03.057-.047.073-.037.05.03-.01-.092-.155-.33-.134-.216-.644-.732-.87-.88a.964.964 0 0 0-.31-.086c-.367-.047-.4-.054-.482-.108a.477.477 0 0 0-.092-.052.583.583 0 0 0-.033.167c-.033.287-.264.585-.453.586-.068 0-.156-.16-.156-.28 0-.075-.013-.06-.09.087-.05.097-.117.217-.15.266-.06.088-.06.09.01.09.1 0 .32.118.36.193a.34.34 0 0 1 .035.135c0 .064-.01.06-.075-.038-.094-.14-.197-.192-.377-.193-.118 0-.167.022-.3.135-.17.14-.253.15-.284.028-.016-.055-.03-.045-.083.065-.08.16-.22.275-.58.468-.415.22-.67.273-.588.12.034-.067-.012-.095-.052-.03a.942.942 0 0 1-.208.127c-.31.156-.543.17-.565.033-.008-.05-.028-.032-.088.075-.075.133-.076.136-.008.076.113-.1.108-.044-.012.143-.143.222-.19.437-.176.786.01.213.027.298.077.366.08.11.092.11.146.008.096-.18.14-.096.183.353l.02.223.09-.085a1 1 0 0 0 .164-.247l.076-.16-.085-.09a1.463 1.463 0 0 1-.187-.308.865.865 0 0 1-.102-.465c0-.136.015-.273.033-.305.03-.053.033-.052.034.008.01.413.03.543.105.705.083.18.205.353.23.324.006-.01.052-.086.1-.17.1-.173.11-.323.038-.496-.06-.146-.063-.22-.004-.134.086.124.117.297.14.766.03.556.022.827-.023.967a.28.28 0 0 0 0 .185c.017.045.047.227.067.403.056.507.17.59.333.244.042-.09.087-.162.1-.163.012 0 .04.06.06.134.087.328.273.617.522.814l.132.104-.02-.224c-.02-.24-.004-.243.122-.014.03.055.07.1.088.1.04 0 .082-.264.06-.377-.01-.052-.002-.078.02-.07.06.02.064.3.006.413-.057.11-.08.12-.146.06-.036-.035-.04-.024-.024.06.012.067.004.117-.023.14-.056.046-.288-.106-.477-.31-.127-.14-.294-.437-.294-.528 0-.06-.056-.05-.105.02a.588.588 0 0 1-.13.117c-.084.052-.098.053-.17.005-.092-.06-.107-.12-.148-.555a2.31 2.31 0 0 0-.046-.337c-.008-.008-.04.03-.073.083a1.087 1.087 0 0 1-.675.45c-.12.016-.174 0-.397-.117a5.05 5.05 0 0 1-.402-.237l-.145-.1-.054.077c-.146.206-.358.83-.318.935.01.026.045.035.093.023.048-.012.09 0 .117.03.033.04.028.055-.026.084-.084.045-.14.145-.116.207.01.025.075.072.144.103.07.03.18.114.25.183.066.07.136.117.154.105.018-.01.024-.005.014.01-.036.06.06.137.188.152.31.037.865.172 1.053.256l.204.092v.146c0 .243.028.275.128.147.046-.06.13-.155.183-.21zm-.384-.237a.784.784 0 0 1-.138-.2c-.02-.065-.025-.066-.064-.013-.038.053-.048.052-.163-.02-.23-.142-.3-.454-.162-.722.08-.153.115-.108.043.055a.438.438 0 0 0-.044.28c.023.136.186.358.23.314a.61.61 0 0 0 .033-.21c.01-.227.062-.294.093-.12.04.224.275.647.328.593.01-.01.038-.128.06-.26.023-.133.055-.237.073-.232.048.015.025.412-.03.546-.027.063-.07.116-.096.116-.025 0-.098-.058-.16-.127zm2.245-4.122a2.12 2.12 0 0 0-.276-.232c-.14-.092-.16-.097-.376-.08-.126.01-.278.03-.34.04-.182.038-.106-.06.098-.123.316-.1.524-.068.766.114.148.112.31.306.31.372 0 .073-.046.05-.182-.09zm-.064-.794a.715.715 0 0 0-.74-.066.418.418 0 0 1-.126.044c-.064 0 0-.064.132-.13.272-.14.75-.057.84.144.05.104.02.106-.106.007zm2.483-.152a.258.258 0 0 1 .075-.066c.01 0-.01.03-.042.066a.258.258 0 0 1-.076.065c-.01 0 .01-.03.043-.065zM7.07 8.518c.106-.108-.026-.325-.247-.407-.09-.032-.114-.024-.282.1a1.02 1.02 0 0 0-.183.154c0 .01.084.058.187.105.2.09.457.114.525.047zm2.753-.08c.16-.066.306-.25.39-.49.072-.21.088-.764.03-1.025-.045-.195-.193-.583-.232-.607a.71.71 0 0 0-.225.003l-.194.02v.145c0 .19-.115.318-.375.41-.207.074-.6.1-.786.05-.088-.02-.107-.014-.138.054-.035.077-.033.08.166.1.36.04.64.222.598.39-.025.098-.16.156-.424.18l-.2.02v.22c0 .167.014.238.066.31.086.117.327.238.546.272.227.036.62.008.78-.055zm-.162-.07a.16.16 0 0 1-.012-.106c.01-.027.005-.038-.01-.025-.047.045-.113-.047-.113-.16 0-.06.03-.172.07-.246.08-.16.487-.58.508-.526.008.022-.082.165-.2.32-.223.292-.274.41-.146.342.122-.065.15.013.07.183a.716.716 0 0 0-.073.21c0 .08-.053.085-.093.008zm-.494-1.836c0-.046-.33-.262-.4-.262-.077 0-.52-.156-.56-.197-.042-.04-.15-.042-.15-.002 0 .047.53.36.727.43.185.066.383.083.383.032zm-3.757-.33c.167-.076.372-.262.448-.406.06-.117.144-.415.12-.438-.03-.032-.127-.03-.166.002-.06.048-.11.004-.11-.095V5.18l-.106.103c-.186.18-.252.135-.252-.173a.98.98 0 0 0-.02-.226c-.016-.043-.028-.04-.075.018-.057.07-.057.07-.177-.07a.703.703 0 0 1-.142-.258l-.02-.117-.136.277c-.078.162-.152.274-.177.27-.023-.006-.033.005-.02.023.01.02-.02.05-.065.072-.072.032-.094.03-.14-.023-.054-.058-.054-.06 0-.018.114.084.2-.115.117-.27-.036-.067-.035-.07.022-.023.04.03.05.034.035.007-.014-.024-.01-.062.01-.086.03-.034.02-.044-.045-.044-.108 0-.19-.07-.17-.144.01-.033.01-.06.003-.06-.04 0-.16.132-.225.245-.082.143-.168.587-.137.71.03.122.31.4.607.6.442.297.555.326.82.207zM4.424 5.05a18.932 18.932 0 0 1-.008-.046.306.306 0 0 0-.035-.074c-.026-.042-.023-.043.025-.004.06.05.077.006.02-.05-.026-.026-.025-.043.005-.06.026-.018.032-.013.017.01-.014.022-.008.04.01.04.02 0 .032.035.026.08-.01.077-.052.15-.06.104zm4.97 1.128a.694.694 0 0 0-.14-.157l-.138-.13-.45.013c-.523.016-.57.053-.216.167.312.1.945.173.945.108zm.196 0c0-.04-.29-.3-.335-.3-.02 0 .035.073.123.163.155.158.213.195.213.137zm.05-.17c-.137-.138-.245-.204-.245-.15 0 .01.07.083.155.164.212.202.29.19.09-.014zm-.408-.247a4.232 4.232 0 0 0 2.266-1.204c.41-.41.483-.518.605-.87.162-.468.196-.926.115-1.58-.045-.362-.186-.723-.35-.89a.58.58 0 0 0-.12-.108c-.01 0-.013.18-.006.4.015.527-.07 1.223-.195 1.606-.262.79-.798 1.366-1.597 1.71-.624.27-1.324.39-2.36.4-.04 0-.028.28.016.33.093.11.196.173.343.212.22.06.956.057 1.282-.005zm-3.236-.566v-.117l-.05.11c-.057.134-.057.124.002.124.035 0 .05-.033.048-.116zm6.28.105a.466.466 0 0 0-.146 0c-.04.007-.007.013.074.013.08 0 .114-.006.073-.014zm.015-.115c-.01-.026-.017-.018-.018.02-.002.035.006.054.017.043.01-.01.01-.04 0-.063zm-6.368-.457c-.01-.026-.02-.018-.02.02-.002.034.006.054.017.043.01-.01.01-.038.002-.062zm6.562-.165a6.29 6.29 0 0 0 .538-.92c.173-.39.21-.62.21-1.26-.003-.47-.016-.652-.06-.815-.068-.247-.175-.47-.214-.445-.015.01-.038.117-.05.238-.074.745-.22 1.53-.314 1.707-.015.028-.053.11-.084.18a3.15 3.15 0 0 1-.193.344c-.075.118-.166.28-.203.365-.066.15-.066.15-.002.294.036.077.094.218.13.313.035.094.075.17.087.17a.847.847 0 0 0 .154-.17zm-8.02-.393c.223-.217.36-.384.486-.595.097-.162.22-.357.275-.434a.698.698 0 0 0 .12-.3.57.57 0 0 0 .008-.164c-.06 0-.51.554-.784.964-.252.377-.493.833-.44.833.01 0 .162-.136.333-.303zm.502-.35c.02-.064.017-.074-.014-.044-.022.02-.045.11-.052.196-.01.14-.008.144.015.044.014-.063.037-.15.05-.196zm6.127-.098c.02-.036.028-.066.02-.066-.01 0-.033.03-.052.066-.02.036-.027.065-.018.065.01 0 .032-.03.05-.065zm-5.275-.588c.173-.12.29-.257.394-.462.092-.182.156-.2.205-.06.03.085.02.125-.078.31-.063.116-.103.212-.09.212.076 0 .64-.31.768-.425.135-.12.155-.154.155-.263 0-.15.067-.457.1-.457.026 0 .145.266.18.4.01.05.03.09.044.09.03 0 .256-.215.41-.39l.125-.143-.02-.367c-.016-.312-.012-.37.03-.387.074-.028.162.03.204.135.05.12.136.466.136.537 0 .067.043.1.103.076.07-.027.187-.22.24-.396.044-.15.043-.184-.012-.394C8.64.867 8.508.682 8.386.687L8.3.69l.082.026c.06.02.066.027.02.03-.05.002-.053.012-.022.05.03.037.028.064-.012.125-.03.044-.04.09-.027.104.015.013.004.02-.023.014s-.046.006-.042.028c.005.026-.04.034-.147.026-.38-.03-.477-.056-.57-.15L7.463.85l-.17.066a4.57 4.57 0 0 0-.38.178c-.116.06-.218.104-.227.095-.027-.03.393-.418.594-.55.105-.07.288-.16.41-.2.3-.106.14-.105-.255 0C7.12.525 6.74.684 6.7.75c-.012.02-.048.026-.08.016a.1.1 0 0 0-.1.03c-.035.044-.06.03-.192-.11A.655.655 0 0 0 6 .477a.594.594 0 0 0-.192-.04c-.016.017.477.346.517.346.037 0 .065.09.043.147A.08.08 0 0 1 6.3.977c-.027 0-.118.058-.202.128-.116.098-.206.227-.372.536-.22.41-.25.5-.182.568.025.025.026.067 0 .145a7.78 7.78 0 0 0-.135.866c0 .08.238.03.408-.086zm5.05-.303c-.032-.03-.035-.027-.018.02.013.03.03.05.04.04.01-.01 0-.037-.02-.06zm-5.81-.11c.068-.034.09-.07.09-.143 0-.053-.01-.097-.022-.097-.032 0-.533.298-.533.318 0 .03.375-.03.465-.077zM5.978.96c.05-.02.048-.025-.004-.065-.108-.082-.358-.03-.395.082-.013.037.018.04.165.024.1-.013.205-.03.234-.042zM8.21.66a.27.27 0 0 0-.114 0c-.03.01-.006.016.057.016S8.243.67 8.21.66z"/></svg>